<svg width="24" height="24" viewBox="0 0 24 24" fill="none" xmlns="http://www.w3.org/2000/svg">
<g clip-path="url(#clip0_27_2265)">
<path fill-rule="evenodd" clip-rule="evenodd" d="M14.5054 13.8695C14.8905 13.4736 15.5236 13.4648 15.9195 13.8498L19.2878 17.1255C19.6838 17.5105 19.6926 18.1436 19.3076 18.5395C18.9225 18.9355 18.2894 18.9443 17.8935 18.5593L14.5251 15.2836C14.1292 14.8986 14.1204 14.2655 14.5054 13.8695Z" fill="#F04E4E"/>
<path fill-rule="evenodd" clip-rule="evenodd" d="M15.6227 12C15.6227 11.4477 16.0704 11 16.6227 11H18.4894C19.0417 11 19.4894 11.4477 19.4894 12C19.4894 12.5523 19.0417 13 18.4894 13H16.6227C16.0704 13 15.6227 12.5523 15.6227 12Z" fill="#FF7B08"/>
<path fill-rule="evenodd" clip-rule="evenodd" d="M11.9557 14.7334C12.508 14.7334 12.9557 15.1811 12.9557 15.7334V21.3334C12.9557 21.8857 12.508 22.3334 11.9557 22.3334C11.4034 22.3334 10.9557 21.8857 10.9557 21.3334V15.7334C10.9557 15.1811 11.4034 14.7334 11.9557 14.7334Z" fill="#FF7B08"/>
<path fill-rule="evenodd" clip-rule="evenodd" d="M11.9559 1.66669C12.5082 1.66669 12.9559 2.1144 12.9559 2.66669V8.26669C12.9559 8.81897 12.5082 9.26669 11.9559 9.26669C11.4036 9.26669 10.9559 8.81897 10.9559 8.26669V2.66669C10.9559 2.1144 11.4036 1.66669 11.9559 1.66669Z" fill="#FF7B08"/>
<path fill-rule="evenodd" clip-rule="evenodd" d="M2.84871 2.89291C3.23923 2.50239 3.8724 2.50239 4.26292 2.89291L9.86292 8.49291C10.2534 8.88344 10.2534 9.5166 9.86292 9.90713C9.4724 10.2977 8.83923 10.2977 8.44871 9.90713L2.84871 4.30713C2.45818 3.9166 2.45818 3.28344 2.84871 2.89291Z" fill="#F04E4E"/>
<path fill-rule="evenodd" clip-rule="evenodd" d="M4.42251 12C4.42251 11.4477 4.87023 11 5.42251 11H7.28918C7.84147 11 8.28918 11.4477 8.28918 12C8.28918 12.5523 7.84147 13 7.28918 13H5.42251C4.87023 13 4.42251 12.5523 4.42251 12Z" fill="#FF7B08"/>
<path fill-rule="evenodd" clip-rule="evenodd" d="M18.3226 6.69141C18.6771 7.11488 18.6212 7.74557 18.1978 8.10011L15.8646 10.0535C15.4411 10.4081 14.8104 10.3522 14.4559 9.92874C14.1013 9.50528 14.1572 8.87459 14.5807 8.52005L16.9139 6.56662C17.3373 6.21208 17.968 6.26795 18.3226 6.69141Z" fill="#F04E4E"/>
<path fill-rule="evenodd" clip-rule="evenodd" d="M9.14987 13.9314C9.50073 14.3579 9.43939 14.9881 9.01287 15.339L4.1908 19.3057C3.76429 19.6565 3.1341 19.5952 2.78324 19.1687C2.43238 18.7421 2.49372 18.112 2.92024 17.7611L7.74231 13.7944C8.16883 13.4436 8.79901 13.5049 9.14987 13.9314Z" fill="#F04E4E"/>
<path d="M13.8224 12C13.8224 13.031 12.9866 13.8667 11.9557 13.8667C10.9248 13.8667 10.089 13.031 10.089 12C10.089 10.9691 10.9248 10.1334 11.9557 10.1334C12.9866 10.1334 13.8224 10.9691 13.8224 12Z" fill="#FF6565"/>
</g>
<defs>
<clipPath id="clip0_27_2265">
<rect width="24" height="24" fill="white"/>
</clipPath>
</defs>
</svg>
