<svg width="24" height="24" viewBox="0 0 24 24" fill="none" xmlns="http://www.w3.org/2000/svg">
<g clip-path="url(#clip0_27_2217)">
<path d="M15.0489 5.99901C15.0489 7.65532 13.7062 8.99802 12.0499 8.99802C10.3936 8.99802 9.05088 7.65532 9.05088 5.99901C9.05088 4.3427 10.3936 3 12.0499 3C13.7062 3 15.0489 4.3427 15.0489 5.99901Z" fill="#019EDB"/>
<path fill-rule="evenodd" clip-rule="evenodd" d="M11.8916 22C17.8986 22 18.0469 21.6394 19.3186 17.1893C19.328 17.1566 19.3289 17.1196 19.3211 17.0864C17.8242 10.7071 16.0616 9.85483 12.0499 9.85483C8.03667 9.85483 6.70066 9.85483 4.77985 17.0882C4.77138 17.1201 4.7706 17.1549 4.77824 17.187C4.80884 17.3158 4.83848 17.441 4.86733 17.563C5.83645 21.6598 5.91691 22 11.8916 22ZM7.33742 17.1381C7.33742 16.0666 7.69503 15.0786 8.29742 14.2869C8.407 14.1429 8.62279 14.2256 8.62279 14.4066V19.8696C8.62279 20.0506 8.407 20.1333 8.29742 19.9893C7.69503 19.1977 7.33742 18.2096 7.33742 17.1381ZM16.7629 17.1381C16.7629 18.301 16.3417 19.3655 15.6436 20.1874C15.5283 20.3231 15.3192 20.2344 15.3226 20.0564L15.4325 14.3477C15.4359 14.1697 15.6482 14.0891 15.7582 14.2291C16.3875 15.0302 16.7629 16.0403 16.7629 17.1381Z" fill="#019EDB"/>
<path d="M11.1903 12.0909H11.6307V14.0043C11.6307 14.2079 11.5829 14.3883 11.4872 14.5455C11.3916 14.7017 11.2571 14.8248 11.0838 14.9148C10.9105 15.0038 10.7074 15.0483 10.4744 15.0483C10.2424 15.0483 10.0398 15.0038 9.86648 14.9148C9.69318 14.8248 9.55871 14.7017 9.46307 14.5455C9.36742 14.3883 9.3196 14.2079 9.3196 14.0043V12.0909H9.75852V13.9688C9.75852 14.1004 9.78741 14.2173 9.84517 14.3196C9.90388 14.4219 9.98674 14.5024 10.0938 14.5611C10.2008 14.6188 10.3277 14.6477 10.4744 14.6477C10.6222 14.6477 10.7495 14.6188 10.8565 14.5611C10.9645 14.5024 11.0469 14.4219 11.1037 14.3196C11.1615 14.2173 11.1903 14.1004 11.1903 13.9688V12.0909Z" fill="white"/>
<path d="M14.6168 12.0909V15H14.2134L12.7347 12.8665H12.7077V15H12.2688V12.0909H12.6751L14.1552 14.2273H14.1822V12.0909H14.6168Z" fill="white"/>
</g>
<defs>
<clipPath id="clip0_27_2217">
<rect width="24" height="24" fill="white"/>
</clipPath>
</defs>
</svg>
