<svg width="24" height="24" viewBox="0 0 24 24" fill="none" xmlns="http://www.w3.org/2000/svg">
<g clip-path="url(#clip0_27_2242)">
<path d="M3.9171 14.0952C3.9171 13.2274 4.69256 12.5238 5.64915 12.5238H18.3509C19.3074 12.5238 20.0829 13.2274 20.0829 14.0952V21.4286C20.0829 22.2964 19.3074 23 18.3509 23H5.64915C4.69256 23 3.9171 22.2964 3.9171 21.4286V14.0952Z" fill="#0F4598"/>
<path d="M3.9171 11.4762H20.0829V21.9524H3.9171V11.4762Z" fill="#0F4598"/>
<path d="M11.4226 1H12.5773V8.33333H11.4226V1Z" fill="#0F4598"/>
<path d="M13.7321 1.52381L14.8868 1H16.6188L20.0829 1.52381L21.2376 1H21.5263V5.97619L20.9489 6.5L20.0829 6.7619H19.2169L18.3509 6.5L16.0415 5.97619H14.8868L13.7321 6.23809V1.52381Z" fill="#0F4598"/>
<path d="M12 6.7619L23 12.6548H1L12 6.7619Z" fill="#0F4598"/>
<path d="M10.0876 14.3333H11.1906V17.9421C11.1906 18.3377 11.0875 18.6857 10.8814 18.986C10.6772 19.2862 10.3899 19.5209 10.0193 19.6899C9.64864 19.8571 9.21559 19.9408 8.72011 19.9408C8.22265 19.9408 7.78862 19.8571 7.418 19.6899C7.04738 19.5209 6.76001 19.2862 6.55587 18.986C6.35173 18.6857 6.24966 18.3377 6.24966 17.9421V14.3333H7.3526V17.8585C7.3526 18.0887 7.40809 18.2937 7.51908 18.4735C7.63205 18.6533 7.7906 18.7945 7.99473 18.8969C8.19887 18.9976 8.44066 19.048 8.72011 19.048C8.99956 19.048 9.24135 18.9976 9.44549 18.8969C9.65161 18.7945 9.81016 18.6533 9.92115 18.4735C10.0321 18.2937 10.0876 18.0887 10.0876 17.8585V14.3333Z" fill="white"/>
<path d="M17.6438 14.3333V19.8571H16.6628L13.794 16.0946H13.7434V19.8571H12.6405V14.3333H13.6275L16.4933 18.0986H16.5469V14.3333H17.6438Z" fill="white"/>
</g>
<defs>
<clipPath id="clip0_27_2242">
<rect width="24" height="24" fill="white"/>
</clipPath>
</defs>
</svg>
